<mxfile host="app.diagrams.net" agent="Mozilla/5.0 (Macintosh; Intel Mac OS X 10_15_7) AppleWebKit/537.36 (KHTML, like Gecko) Chrome/128.0.0.0 Safari/537.36 Edg/128.0.0.0" version="25.0.1">
  <diagram name="第 1 页" id="UhzM0af9Lw5AaKnerkw6">
    <mxGraphModel dx="1018" dy="653" grid="1" gridSize="10" guides="1" tooltips="1" connect="1" arrows="1" fold="1" page="1" pageScale="1" pageWidth="827" pageHeight="1169" math="0" shadow="0">
      <root>
        <mxCell id="0" />
        <mxCell id="1" parent="0" />
        <mxCell id="xS-DGLg7_olRukD6ihcz-29" style="edgeStyle=orthogonalEdgeStyle;rounded=0;orthogonalLoop=1;jettySize=auto;html=1;exitX=0.5;exitY=1;exitDx=0;exitDy=0;" edge="1" parent="1" source="xS-DGLg7_olRukD6ihcz-2" target="xS-DGLg7_olRukD6ihcz-4">
          <mxGeometry relative="1" as="geometry">
            <Array as="points">
              <mxPoint x="370" y="180" />
              <mxPoint x="260" y="180" />
            </Array>
          </mxGeometry>
        </mxCell>
        <mxCell id="xS-DGLg7_olRukD6ihcz-30" style="edgeStyle=orthogonalEdgeStyle;rounded=0;orthogonalLoop=1;jettySize=auto;html=1;exitX=0.5;exitY=1;exitDx=0;exitDy=0;entryX=0.5;entryY=0;entryDx=0;entryDy=0;" edge="1" parent="1" source="xS-DGLg7_olRukD6ihcz-2" target="xS-DGLg7_olRukD6ihcz-5">
          <mxGeometry relative="1" as="geometry">
            <Array as="points">
              <mxPoint x="370" y="180" />
              <mxPoint x="479" y="180" />
            </Array>
          </mxGeometry>
        </mxCell>
        <mxCell id="xS-DGLg7_olRukD6ihcz-2" value="主题域" style="rounded=0;whiteSpace=wrap;html=1;fillColor=#fad9d5;strokeColor=#ae4132;" vertex="1" parent="1">
          <mxGeometry x="160" y="120" width="420" height="50" as="geometry" />
        </mxCell>
        <mxCell id="xS-DGLg7_olRukD6ihcz-3" value="Database" style="text;html=1;align=center;verticalAlign=middle;resizable=0;points=[];autosize=1;strokeColor=none;fillColor=none;fontSize=14;fontStyle=1" vertex="1" parent="1">
          <mxGeometry x="70" y="135" width="80" height="30" as="geometry" />
        </mxCell>
        <mxCell id="xS-DGLg7_olRukD6ihcz-26" style="edgeStyle=orthogonalEdgeStyle;rounded=0;orthogonalLoop=1;jettySize=auto;html=1;exitX=0.5;exitY=1;exitDx=0;exitDy=0;" edge="1" parent="1" source="xS-DGLg7_olRukD6ihcz-4" target="xS-DGLg7_olRukD6ihcz-8">
          <mxGeometry relative="1" as="geometry" />
        </mxCell>
        <mxCell id="xS-DGLg7_olRukD6ihcz-4" value="数据集" style="rounded=0;whiteSpace=wrap;html=1;fillColor=#dae8fc;strokeColor=#6c8ebf;fontColor=#355cb7;" vertex="1" parent="1">
          <mxGeometry x="160" y="195" width="200" height="50" as="geometry" />
        </mxCell>
        <mxCell id="xS-DGLg7_olRukD6ihcz-27" style="edgeStyle=orthogonalEdgeStyle;rounded=0;orthogonalLoop=1;jettySize=auto;html=1;exitX=0.5;exitY=1;exitDx=0;exitDy=0;entryX=0.5;entryY=0;entryDx=0;entryDy=0;" edge="1" parent="1" source="xS-DGLg7_olRukD6ihcz-5" target="xS-DGLg7_olRukD6ihcz-9">
          <mxGeometry relative="1" as="geometry" />
        </mxCell>
        <mxCell id="xS-DGLg7_olRukD6ihcz-28" style="edgeStyle=orthogonalEdgeStyle;rounded=0;orthogonalLoop=1;jettySize=auto;html=1;exitX=0.5;exitY=1;exitDx=0;exitDy=0;entryX=0.5;entryY=0;entryDx=0;entryDy=0;" edge="1" parent="1" source="xS-DGLg7_olRukD6ihcz-5" target="xS-DGLg7_olRukD6ihcz-8">
          <mxGeometry relative="1" as="geometry">
            <Array as="points">
              <mxPoint x="479" y="250" />
              <mxPoint x="260" y="250" />
            </Array>
          </mxGeometry>
        </mxCell>
        <mxCell id="xS-DGLg7_olRukD6ihcz-5" value="数据集" style="rounded=0;whiteSpace=wrap;html=1;fillColor=#dae8fc;strokeColor=#6c8ebf;fontColor=#355cb7;" vertex="1" parent="1">
          <mxGeometry x="379" y="195" width="200" height="50" as="geometry" />
        </mxCell>
        <mxCell id="xS-DGLg7_olRukD6ihcz-6" value="View" style="text;html=1;align=center;verticalAlign=middle;resizable=0;points=[];autosize=1;strokeColor=none;fillColor=none;fontSize=14;fontStyle=1" vertex="1" parent="1">
          <mxGeometry x="85" y="205" width="50" height="30" as="geometry" />
        </mxCell>
        <mxCell id="xS-DGLg7_olRukD6ihcz-7" value="Table" style="text;html=1;align=center;verticalAlign=middle;resizable=0;points=[];autosize=1;strokeColor=none;fillColor=none;fontSize=14;fontStyle=1" vertex="1" parent="1">
          <mxGeometry x="80" y="280" width="60" height="30" as="geometry" />
        </mxCell>
        <mxCell id="xS-DGLg7_olRukD6ihcz-20" style="edgeStyle=orthogonalEdgeStyle;rounded=0;orthogonalLoop=1;jettySize=auto;html=1;exitX=0.5;exitY=1;exitDx=0;exitDy=0;entryX=0.5;entryY=0;entryDx=0;entryDy=0;" edge="1" parent="1" source="xS-DGLg7_olRukD6ihcz-8" target="xS-DGLg7_olRukD6ihcz-11">
          <mxGeometry relative="1" as="geometry" />
        </mxCell>
        <mxCell id="xS-DGLg7_olRukD6ihcz-21" style="edgeStyle=orthogonalEdgeStyle;rounded=0;orthogonalLoop=1;jettySize=auto;html=1;exitX=0.5;exitY=1;exitDx=0;exitDy=0;entryX=0.5;entryY=0;entryDx=0;entryDy=0;" edge="1" parent="1" source="xS-DGLg7_olRukD6ihcz-8" target="xS-DGLg7_olRukD6ihcz-14">
          <mxGeometry relative="1" as="geometry" />
        </mxCell>
        <mxCell id="xS-DGLg7_olRukD6ihcz-22" style="edgeStyle=orthogonalEdgeStyle;rounded=0;orthogonalLoop=1;jettySize=auto;html=1;exitX=0.5;exitY=1;exitDx=0;exitDy=0;entryX=0.5;entryY=0;entryDx=0;entryDy=0;" edge="1" parent="1" source="xS-DGLg7_olRukD6ihcz-8" target="xS-DGLg7_olRukD6ihcz-13">
          <mxGeometry relative="1" as="geometry" />
        </mxCell>
        <mxCell id="xS-DGLg7_olRukD6ihcz-8" value="数据模型" style="rounded=0;whiteSpace=wrap;html=1;fillColor=#d5e8d4;strokeColor=#82b366;" vertex="1" parent="1">
          <mxGeometry x="160" y="270" width="200" height="50" as="geometry" />
        </mxCell>
        <mxCell id="xS-DGLg7_olRukD6ihcz-23" style="edgeStyle=orthogonalEdgeStyle;rounded=0;orthogonalLoop=1;jettySize=auto;html=1;exitX=0.5;exitY=1;exitDx=0;exitDy=0;entryX=0.5;entryY=0;entryDx=0;entryDy=0;" edge="1" parent="1" source="xS-DGLg7_olRukD6ihcz-9" target="xS-DGLg7_olRukD6ihcz-16">
          <mxGeometry relative="1" as="geometry" />
        </mxCell>
        <mxCell id="xS-DGLg7_olRukD6ihcz-24" style="edgeStyle=orthogonalEdgeStyle;rounded=0;orthogonalLoop=1;jettySize=auto;html=1;exitX=0.5;exitY=1;exitDx=0;exitDy=0;entryX=0.5;entryY=0;entryDx=0;entryDy=0;" edge="1" parent="1" source="xS-DGLg7_olRukD6ihcz-9" target="xS-DGLg7_olRukD6ihcz-19">
          <mxGeometry relative="1" as="geometry" />
        </mxCell>
        <mxCell id="xS-DGLg7_olRukD6ihcz-25" style="edgeStyle=orthogonalEdgeStyle;rounded=0;orthogonalLoop=1;jettySize=auto;html=1;exitX=0.5;exitY=1;exitDx=0;exitDy=0;entryX=0.5;entryY=0;entryDx=0;entryDy=0;" edge="1" parent="1" source="xS-DGLg7_olRukD6ihcz-9" target="xS-DGLg7_olRukD6ihcz-17">
          <mxGeometry relative="1" as="geometry" />
        </mxCell>
        <mxCell id="xS-DGLg7_olRukD6ihcz-9" value="数据模型" style="rounded=0;whiteSpace=wrap;html=1;fillColor=#d5e8d4;strokeColor=#82b366;" vertex="1" parent="1">
          <mxGeometry x="379" y="270" width="201" height="50" as="geometry" />
        </mxCell>
        <mxCell id="xS-DGLg7_olRukD6ihcz-10" value="Column" style="text;html=1;align=center;verticalAlign=middle;resizable=0;points=[];autosize=1;strokeColor=none;fillColor=none;fontSize=14;fontStyle=1" vertex="1" parent="1">
          <mxGeometry x="75" y="350" width="70" height="30" as="geometry" />
        </mxCell>
        <mxCell id="xS-DGLg7_olRukD6ihcz-11" value="指标" style="rounded=0;whiteSpace=wrap;html=1;fillColor=#fff2cc;strokeColor=#d6b656;" vertex="1" parent="1">
          <mxGeometry x="160" y="350" width="60" height="40" as="geometry" />
        </mxCell>
        <mxCell id="xS-DGLg7_olRukD6ihcz-13" value="指标" style="rounded=0;whiteSpace=wrap;html=1;fillColor=#fff2cc;strokeColor=#d6b656;" vertex="1" parent="1">
          <mxGeometry x="300" y="350" width="60" height="40" as="geometry" />
        </mxCell>
        <mxCell id="xS-DGLg7_olRukD6ihcz-14" value="指标" style="rounded=0;whiteSpace=wrap;html=1;fillColor=#fff2cc;strokeColor=#d6b656;" vertex="1" parent="1">
          <mxGeometry x="230" y="350" width="60" height="40" as="geometry" />
        </mxCell>
        <mxCell id="xS-DGLg7_olRukD6ihcz-16" value="指标" style="rounded=0;whiteSpace=wrap;html=1;fillColor=#fff2cc;strokeColor=#d6b656;" vertex="1" parent="1">
          <mxGeometry x="379" y="350" width="60" height="40" as="geometry" />
        </mxCell>
        <mxCell id="xS-DGLg7_olRukD6ihcz-17" value="指标" style="rounded=0;whiteSpace=wrap;html=1;fillColor=#fff2cc;strokeColor=#d6b656;" vertex="1" parent="1">
          <mxGeometry x="520" y="350" width="60" height="40" as="geometry" />
        </mxCell>
        <mxCell id="xS-DGLg7_olRukD6ihcz-19" value="指标" style="rounded=0;whiteSpace=wrap;html=1;fillColor=#fff2cc;strokeColor=#d6b656;" vertex="1" parent="1">
          <mxGeometry x="449.5" y="350" width="60" height="40" as="geometry" />
        </mxCell>
      </root>
    </mxGraphModel>
  </diagram>
</mxfile>
